<?xml version="1.0" encoding="UTF-8"?>
<svg id="Capa_2" data-name="Capa 2" xmlns="http://www.w3.org/2000/svg" viewBox="0 0 355.04 568">
  <defs>
    <style>
      .cls-1 {
        fill: #0a0809;
      }
    </style>
  </defs>
  <g id="Capa_1-2" data-name="Capa 1">
    <path class="cls-1" d="m312.66,29.25S262.29,2.06,177.52,0C92.75,2.06,42.38,29.25,42.38,29.25,36.94,74.87,0,73.84,0,73.84v388.93c0,16.17,9.09,31.07,23.62,38.17,12.08,5.9,24.21,9.33,24.21,9.33,124.6,35.74,129.69,57.73,129.69,57.73,0,0,5.09-21.99,129.69-57.73,0,0,12.13-3.44,24.21-9.33,14.53-7.09,23.62-21.99,23.62-38.17V73.84s-36.94,1.03-42.38-44.59Z"/>
  </g>
</svg>